<svg version="1.1" xmlns="http://www.w3.org/2000/svg" xmlns:xlink="http://www.w3.org/1999/xlink" x="0px" y="0px"
	 viewBox="0 0 500 500" style="enable-background:new 0 0 500 500;" xml:space="preserve">
<g>
<path d="M231.08,32.938c0.014,0.158,0.009,0.402-0.093,0.472c-0.644,0.443-1.288,0.899-1.988,1.25
					c-0.731,0.366-0.919,0.184-1.121-0.914l0.083-0.091l-0.111,0.064c-0.564,0.233-1.446-0.158-1.645,0.804
					c-0.075,0.36-0.466,0.342-0.768,0.315c-1.211-0.108-2.416,0.324-3.65-0.054c-0.482-0.148-1.115,0.001-1.635,0.151
					c-0.741,0.214-1.493,0.284-2.167,0.004c-1.725-0.717-3.479-0.022-5.215-0.15c-0.435-0.032-0.745,0.154-0.961-0.324
					c-0.033-0.072-0.13-0.466-0.226-0.164c-0.36,1.134-1.119,0.602-1.793,0.48c-0.195-0.036-0.375-0.007-0.469,0.168
					c-0.544,1.015-1.403,0.468-1.877,0.128c-0.46-0.329-0.675-0.457-1.207-0.206c-1.476,0.698-2.892,0.741-4.582,0.267
					c-1.138-0.319-2.628-0.036-3.958-0.087c-2.787-0.107-5.585,0.149-8.364-0.326c-0.762-0.13-1.588,0.11-2.386,0.131
					c-0.426,0.011-0.981-0.026-0.913-0.604c0.062-0.528,0.568-0.258,0.902-0.275c0.118-0.006,0.234-0.051,0.462-0.104
					c-0.327-0.611-0.585-1.154-1.406-0.549c-0.049,0.036-0.103,0.068-0.161,0.089c-0.763,0.282-1.255,0.996-1.95,1.27
					c-0.684,0.269-1.567-0.149-2.261,0.261c-0.156-0.128-0.304-0.188-0.323-0.273c-0.349-1.623-1.455-2.11-2.552-0.872
					c-1.199,1.352-2.796,1.333-4.098,1.171c-1.316-0.164-2.512-0.109-3.763,0.083c-0.06,0.009-0.122,0.066-0.174,0.056
					c-0.666-0.13-1.35,0.071-1.985-0.018c-0.774-0.108-0.461-0.994-0.804-1.467c-0.237-0.326-0.482-0.285-0.783-0.254l-0.095-0.069
					l0.062,0.1c0.633,1.449,0.522,1.397-0.959,1.616c-3.194,0.471-6.365,0.026-9.544,0.068c-2.599,0.035-5.192,0.042-7.79-0.062
					c-2.67-0.107-5.373-0.336-8.008-0.055c-1.851,0.198-3.645-0.283-5.456,0.023c-0.153,0.026-0.333-0.091-0.52-0.148
					c0.044-0.66,0.582-0.894,1.013-0.747c1.491,0.507,2.924,0.018,4.381-0.057c0.855-0.044,1.714-0.008,2.513-0.008
					c-1.33-1.467-2.903-0.21-4.377-0.281c-3.232-0.156-6.481,0.015-9.723,0.024c-0.419,0.001-0.839-0.168-1.26-0.252
					c-0.361-0.073-0.756-0.261-1.081-0.186c-2.658,0.617-5.34,0.49-8.031,0.35c-0.614-0.032-1.221,0.161-1.788,0.414
					c-0.176,1.018-1.032,1.086-1.838,1.115c-1.239,0.045-2.492,0.106-3.72-0.015c-3.725-0.368-7.44-0.037-11.157,0.06
					c-2.34,0.061-4.685-0.35-7.018,0.072c-0.512,0.093-0.937-0.103-0.931-0.581c0.006-0.493,0.567-0.282,0.885-0.381
					c0.108-0.034,0.209-0.087,0.596-0.252c-2.238-0.245-4.222-0.016-6.156,0.125c-1.979,0.145-3.993-0.039-5.953,0.501
					c2.127,0.205,4.303-0.341,6.519,0.233c-0.944,0.633-3.158,0.761-5.555,0.685c-1.893-0.06-3.798,0.283-5.694,0.255
					c-1.812-0.026-3.653,0.656-5.459-0.134c2.995-0.333,6.001-0.409,9.031-0.813c-0.403-0.652-0.846-0.208-1.218-0.199
					c-8.046,0.21-16.088,0.485-24.142,0.525c-4.689,0.023-9.384,0.375-14.082,0.281c-2.449-0.049-4.895-0.227-7.342-0.355
					c-0.374-0.019-0.82-0.063-0.813-0.526c0.006-0.402,0.387-0.628,0.774-0.61c1.807,0.088,3.556-0.424,5.355-0.421
					c3.843,0.006,7.703,0.193,11.524-0.092c4.275-0.32,8.55,0,12.801-0.298c5.127-0.358,10.274-0.233,15.387-0.693
					c5.73-0.516,11.476-0.55,17.218-0.776c14.571-0.572,29.147-0.016,43.715-0.313c3.024-0.062,6.052-0.296,9.086-0.294
					c7.059,0.004,14.125,0.186,21.173-0.08c4.272-0.161,8.548-0.396,12.807-0.226c3.962,0.159,7.92,0.352,11.885,0.288
					c5.053-0.082,10.114-0.088,15.152-0.406c2.786-0.176,5.602,0.006,8.338-0.363c3.211-0.433,6.452,0.077,9.629-0.57
					c0.597-0.122,1.288-0.191,1.836,0.086c1.463,0.741,3.016,0.995,4.644,1.019c0.229,0.003,0.467,0.159,0.535,0.537
					c-2.23,0.945-4.751,0.128-7.008,1.026c1.204-0.205,2.298,0.607,3.522,0.268C230.875,32.759,231.075,32.875,231.08,32.938z
					 M94.159,34.24l-0.117,0.028l0.108,0.049L94.159,34.24z M107.713,33.954c-0.949-0.271-1.874-0.171-2.784,0.143
					c-1.837-0.475-8.178-0.326-9.731,0.285c2.802,0,5.452-0.003,8.102,0.003c0.563,0.001,1.108-0.058,1.625-0.281
					C105.864,34.184,106.806,34.32,107.713,33.954z M114.236,34.041c-1.487-0.305-2.96-0.27-4.42,0.089
					C111.301,34.406,112.778,34.47,114.236,34.041z M116.473,34.1c-0.418-0.354-0.809-0.335-1.241,0.055
					C115.713,34.422,116.074,34.009,116.473,34.1z M146.133,33.894c-0.732,0.1-1.354-0.488-2.13-0.168
					C144.666,34.159,145.396,34.046,146.133,33.894z M150.134,33.945c-0.005-0.038-0.01-0.077-0.014-0.115c-0.473,0-0.947,0-1.42,0
					c-0.009,0.039-0.018,0.077-0.027,0.115C149.16,33.945,149.647,33.945,150.134,33.945z M153.764,33.891l-0.12,0.036l0.11,0.052
					L153.764,33.891z M158.553,33.951c-0.33-0.191-0.68-0.167-1.046-0.065c0.243,0.272,0.485,0.534,0.895,0.338
					C158.485,34.185,158.561,33.956,158.553,33.951z M164.758,33.369l-0.08-0.009l0.029,0.108L164.758,33.369z M169.931,33.406
					c-0.087-0.063-0.218-0.195-0.254-0.175c-0.144,0.081-0.342,0.196-0.365,0.323c-0.032,0.178,0.157,0.313,0.358,0.257
					C169.853,33.76,169.948,33.602,169.931,33.406z M171.982,33.233c-0.034-0.03-0.063-0.076-0.103-0.087
					c-0.052-0.015-0.13-0.024-0.167,0.002c-0.106,0.075-0.062,0.135,0.112,0.136C171.876,33.284,171.929,33.251,171.982,33.233z
					 M176.111,32.912c-0.561,0.101-0.792,0.127-1.014,0.186c-0.201,0.053-0.539-0.058-0.509,0.317
					c0.009,0.107,0.067,0.227,0.141,0.31c0.222,0.25,0.404,0.1,0.581-0.073C175.475,33.49,175.649,33.338,176.111,32.912z
					 M182.744,33.047c-0.028-0.061-0.22-0.104-0.308-0.076c-0.137,0.044-0.375,0.053-0.312,0.279
					c0.013,0.048,0.221,0.046,0.36,0.071C182.618,33.278,182.869,33.315,182.744,33.047z M189.897,33.413
					c0.025-0.135-0.047-0.209-0.16-0.14c-0.076,0.046-0.12,0.17-0.137,0.265c-0.025,0.143,0.062,0.218,0.143,0.148
					C189.819,33.621,189.848,33.507,189.897,33.413z M192.121,33.468c-0.01-0.086-0.116-0.177-0.202-0.235
					c-0.122-0.082-0.213-0.041-0.243,0.084c0.07,0.079,0.127,0.175,0.213,0.233C192.01,33.634,192.136,33.589,192.121,33.468z
					 M199.203,33.207c-0.543,0.166-0.947,0.469-1.384,0.855C198.767,33.793,198.767,33.793,199.203,33.207z M205.33,33.387
					c-0.009-0.026-0.09-0.031-0.138-0.045c-0.039,0.04-0.109,0.079-0.11,0.12c-0.004,0.153,0.083,0.183,0.214,0.073
					C205.329,33.507,205.344,33.43,205.33,33.387z M207.003,33.284c-0.1-0.046-0.218-0.149-0.295-0.126
					c-0.162,0.049-0.399,0.141-0.43,0.257c-0.066,0.246,0.184,0.219,0.344,0.197C206.813,33.585,206.955,33.477,207.003,33.284z
					 M213.383,32.825l-0.116,0.021l0.098,0.055L213.383,32.825z M216.349,32.824l-0.115,0.028l0.105,0.048L216.349,32.824z
					 M219.515,32.801c-0.209,0.077-0.417,0.155-0.626,0.233l-0.064,0.099l0.099-0.067C219.089,32.914,219.446,33.146,219.515,32.801
					z M222.68,34.242l-0.114,0.028l0.105,0.049L222.68,34.242z M223.365,32.779c-0.117-0.037-0.234-0.074-0.351-0.11l-0.098-0.082
					l0.068,0.11C223.112,32.717,223.18,32.995,223.365,32.779z M225.653,32.467l-0.11,0.038l0.109,0.039L225.653,32.467z"/>
				<path d="M116.985,34.678c2.073,0.752,4.137,0.22,6.203-0.014C121.115,33.739,119.052,34.54,116.985,34.678z"/>
				<path d="M133.005,34.153c-1.054,0.255-2.167-0.155-3.252,0.544c0.574,0.11,1.144,0.258,1.724,0.32
					c0.539,0.058,1.093,0.061,1.634,0.018c0.234-0.019,0.407-0.256,0.404-0.515C133.511,34.206,133.227,34.1,133.005,34.153z"/>
				<path d="M66.813,35.931c0.959,0.369,1.912,0.589,2.763-0.222C68.639,35.478,67.709,35.301,66.813,35.931z"/>
				<path d="M89.688,34.644c-0.363,0.047-0.96-0.416-1.023,0.267c-0.045,0.489,0.447,0.683,0.921,0.519
					c0.396-0.138,1.18,0.234,1.123-0.527C90.659,34.248,90.069,34.616,89.688,34.644z"/>
				<path d="M180.149,33.846c-0.372,0.039-0.576,0.26-0.6,0.57c-0.034,0.435,0.262,0.649,0.688,0.624
					c0.322-0.019,0.597-0.202,0.617-0.542C180.881,34.042,180.523,33.921,180.149,33.846z"/>
				<path d="M124.684,34.16c-0.353-0.012-0.521,0.225-0.6,0.507c-0.05,0.178,0.06,0.341,0.256,0.356
					c0.373,0.027,0.686-0.084,0.817-0.452C125.124,34.292,124.938,34.169,124.684,34.16z"/>
				<path d="M126.696,34.629c0.497,0.286,0.904,0.333,1.566-0.09C127.655,34.467,127.289,34.057,126.696,34.629z"/>
</g>
</svg>